<svg xmlns="http://www.w3.org/2000/svg" width="820" height="270" viewBox="0 0 820 270" role="img" aria-label="Private-aware GitHub activity for wbizmo">
<style>
.bg{fill:#fff}.title{font:600 19px -apple-system,BlinkMacSystemFont,Segoe UI,Helvetica,Arial,sans-serif;fill:#0969da}.sub{font:400 12px -apple-system,BlinkMacSystemFont,Segoe UI,Helvetica,Arial,sans-serif;fill:#57606a}.small{font:400 11px -apple-system,BlinkMacSystemFont,Segoe UI,Helvetica,Arial,sans-serif;fill:#57606a}.grid{stroke:#d8dee4;stroke-width:1}.area{fill:#0969da;fill-opacity:.16}.line{fill:none;stroke:#0969da;stroke-width:2.75;stroke-linejoin:round;stroke-linecap:round}.border{fill:none;stroke:#d0d7de}@media(prefers-color-scheme:dark){.bg{fill:#0d1117}.title{fill:#58a6ff}.sub,.small{fill:#8b949e}.grid,.border{stroke:#30363d}.area{fill:#58a6ff;fill-opacity:.16}.line{stroke:#58a6ff}}
</style>
<rect class="bg" width="820" height="270" rx="8"/><rect class="border" x=".5" y=".5" width="819" height="269" rx="8"/>
<text class="title" x="24" y="34">GitHub Activity</text>
<text class="sub" x="796" y="33" text-anchor="end">3204 contributions · last 90 days</text>
<line x1="58" y1="222" x2="788" y2="222" class="grid"/><text x="46" y="226" text-anchor="end" class="small">0</text><line x1="58" y1="184.5" x2="788" y2="184.5" class="grid"/><text x="46" y="188.5" text-anchor="end" class="small">178</text><line x1="58" y1="147" x2="788" y2="147" class="grid"/><text x="46" y="151" text-anchor="end" class="small">355</text><line x1="58" y1="109.5" x2="788" y2="109.5" class="grid"/><text x="46" y="113.5" text-anchor="end" class="small">533</text><line x1="58" y1="72" x2="788" y2="72" class="grid"/><text x="46" y="76" text-anchor="end" class="small">710</text>
<polygon class="area" points="58,222 58.0,218.2 118.8,207.2 179.7,199.4 240.5,189.9 301.3,214.6 362.2,205.3 423.0,207.2 483.8,182.5 544.7,161.2 605.5,103.5 666.3,114.5 727.2,73.5 788.0,132.2 788,222"/><polyline class="line" points="58.0,218.2 118.8,207.2 179.7,199.4 240.5,189.9 301.3,214.6 362.2,205.3 423.0,207.2 483.8,182.5 544.7,161.2 605.5,103.5 666.3,114.5 727.2,73.5 788.0,132.2"/>
<circle cx="58.0" cy="218.2" r="3" fill="#fff" stroke="#0969da" stroke-width="2"><title>2026-06-23: 18 GitHub contribution events</title></circle><circle cx="118.8" cy="207.2" r="3" fill="#fff" stroke="#0969da" stroke-width="2"><title>2026-06-30: 70 GitHub contribution events</title></circle><circle cx="179.7" cy="199.4" r="3" fill="#fff" stroke="#0969da" stroke-width="2"><title>2026-07-07: 107 GitHub contribution events</title></circle><circle cx="240.5" cy="189.9" r="3" fill="#fff" stroke="#0969da" stroke-width="2"><title>2026-07-14: 152 GitHub contribution events</title></circle><circle cx="301.3" cy="214.6" r="3" fill="#fff" stroke="#0969da" stroke-width="2"><title>2026-07-21: 35 GitHub contribution events</title></circle><circle cx="362.2" cy="205.3" r="3" fill="#fff" stroke="#0969da" stroke-width="2"><title>2026-07-28: 79 GitHub contribution events</title></circle><circle cx="423.0" cy="207.2" r="3" fill="#fff" stroke="#0969da" stroke-width="2"><title>2026-08-04: 70 GitHub contribution events</title></circle><circle cx="483.8" cy="182.5" r="3" fill="#fff" stroke="#0969da" stroke-width="2"><title>2026-08-11: 187 GitHub contribution events</title></circle><circle cx="544.7" cy="161.2" r="3" fill="#fff" stroke="#0969da" stroke-width="2"><title>2026-08-18: 288 GitHub contribution events</title></circle><circle cx="605.5" cy="103.5" r="3" fill="#fff" stroke="#0969da" stroke-width="2"><title>2026-08-25: 561 GitHub contribution events</title></circle><circle cx="666.3" cy="114.5" r="3" fill="#fff" stroke="#0969da" stroke-width="2"><title>2026-09-01: 509 GitHub contribution events</title></circle><circle cx="727.2" cy="73.5" r="3" fill="#fff" stroke="#0969da" stroke-width="2"><title>2026-09-08: 703 GitHub contribution events</title></circle><circle cx="788.0" cy="132.2" r="3" fill="#fff" stroke="#0969da" stroke-width="2"><title>2026-09-15: 425 GitHub contribution events</title></circle><text x="58" y="252" text-anchor="middle" class="small">23/06</text><text x="240.5" y="252" text-anchor="middle" class="small">14/07</text><text x="423" y="252" text-anchor="middle" class="small">04/08</text><text x="605.5" y="252" text-anchor="middle" class="small">25/08</text><text x="788" y="252" text-anchor="middle" class="small">15/09</text>
</svg>