<svg xmlns="http://www.w3.org/2000/svg" width="820" height="270" viewBox="0 0 820 270" role="img" aria-label="GitHub contribution activity for wbizmo over the last 90 days"><style>.bg{fill:#fff}.title{font:600 19px -apple-system,BlinkMacSystemFont,Segoe UI,Helvetica,Arial,sans-serif;fill:#0969da}.sub{font:400 12px -apple-system,BlinkMacSystemFont,Segoe UI,Helvetica,Arial,sans-serif;fill:#57606a}.axis{font:400 11px -apple-system,BlinkMacSystemFont,Segoe UI,Helvetica,Arial,sans-serif;fill:#57606a}.grid{stroke:#d8dee4;stroke-width:1}.area{fill:#0969da;fill-opacity:.16}.line{fill:none;stroke:#0969da;stroke-width:2.75;stroke-linejoin:round;stroke-linecap:round}.point{fill:#fff;stroke:#0969da;stroke-width:2}.border{fill:none;stroke:#d0d7de}@media(prefers-color-scheme:dark){.bg{fill:#0d1117}.title{fill:#58a6ff}.sub,.axis{fill:#8b949e}.grid,.border{stroke:#30363d}.area{fill:#58a6ff;fill-opacity:.16}.line{stroke:#58a6ff}.point{fill:#0d1117;stroke:#58a6ff}}</style><rect class="bg" width="820" height="270" rx="8"/><rect class="border" x=".5" y=".5" width="819" height="269" rx="8"/><text x="28" y="34" class="title">Contribution Activity</text><text x="792" y="34" text-anchor="end" class="sub">last 90 days · 1,843 contributions</text><line x1="58" y1="222" x2="788" y2="222" class="grid"/><text x="46" y="226" text-anchor="end" class="axis">0</text><line x1="58" y1="184.5" x2="788" y2="184.5" class="grid"/><text x="46" y="188.5" text-anchor="end" class="axis">128</text><line x1="58" y1="147" x2="788" y2="147" class="grid"/><text x="46" y="151" text-anchor="end" class="axis">255</text><line x1="58" y1="109.5" x2="788" y2="109.5" class="grid"/><text x="46" y="113.5" text-anchor="end" class="axis">383</text><line x1="58" y1="72" x2="788" y2="72" class="grid"/><text x="46" y="76" text-anchor="end" class="axis">510</text><polygon points="58,222 58.0,207.6 118.8,182.0 179.7,179.1 240.5,217.3 301.3,205.8 362.2,186.4 423.0,175.8 483.8,212.0 544.7,197.6 605.5,205.2 666.3,177.6 727.2,124.9 788.0,72.6 788,222" class="area"/><polyline points="58.0,207.6 118.8,182.0 179.7,179.1 240.5,217.3 301.3,205.8 362.2,186.4 423.0,175.8 483.8,212.0 544.7,197.6 605.5,205.2 666.3,177.6 727.2,124.9 788.0,72.6" class="line"/><circle cx="58.0" cy="207.6" r="3" class="point"><title>2026-06-01: 49 contributions</title></circle><circle cx="118.8" cy="182.0" r="3" class="point"><title>2026-06-08: 136 contributions</title></circle><circle cx="179.7" cy="179.1" r="3" class="point"><title>2026-06-15: 146 contributions</title></circle><circle cx="240.5" cy="217.3" r="3" class="point"><title>2026-06-22: 16 contributions</title></circle><circle cx="301.3" cy="205.8" r="3" class="point"><title>2026-06-29: 55 contributions</title></circle><circle cx="362.2" cy="186.4" r="3" class="point"><title>2026-07-06: 121 contributions</title></circle><circle cx="423.0" cy="175.8" r="3" class="point"><title>2026-07-13: 157 contributions</title></circle><circle cx="483.8" cy="212.0" r="3" class="point"><title>2026-07-20: 34 contributions</title></circle><circle cx="544.7" cy="197.6" r="3" class="point"><title>2026-07-27: 83 contributions</title></circle><circle cx="605.5" cy="205.2" r="3" class="point"><title>2026-08-03: 57 contributions</title></circle><circle cx="666.3" cy="177.6" r="3" class="point"><title>2026-08-10: 151 contributions</title></circle><circle cx="727.2" cy="124.9" r="3" class="point"><title>2026-08-17: 330 contributions</title></circle><circle cx="788.0" cy="72.6" r="3" class="point"><title>2026-08-24: 508 contributions</title></circle><text x="58" y="252" text-anchor="middle" class="axis">01/06</text><text x="240.5" y="252" text-anchor="middle" class="axis">22/06</text><text x="423" y="252" text-anchor="middle" class="axis">13/07</text><text x="605.5" y="252" text-anchor="middle" class="axis">03/08</text><text x="788" y="252" text-anchor="middle" class="axis">24/08</text></svg>