<svg xmlns="http://www.w3.org/2000/svg" width="820" height="270" viewBox="0 0 820 270" role="img" aria-label="Private-aware GitHub activity for wbizmo">
<style>
.bg{fill:#fff}.title{font:600 19px -apple-system,BlinkMacSystemFont,Segoe UI,Helvetica,Arial,sans-serif;fill:#0969da}.sub{font:400 12px -apple-system,BlinkMacSystemFont,Segoe UI,Helvetica,Arial,sans-serif;fill:#57606a}.small{font:400 11px -apple-system,BlinkMacSystemFont,Segoe UI,Helvetica,Arial,sans-serif;fill:#57606a}.grid{stroke:#d8dee4;stroke-width:1}.area{fill:#0969da;fill-opacity:.16}.line{fill:none;stroke:#0969da;stroke-width:2.75;stroke-linejoin:round;stroke-linecap:round}.border{fill:none;stroke:#d0d7de}@media(prefers-color-scheme:dark){.bg{fill:#0d1117}.title{fill:#58a6ff}.sub,.small{fill:#8b949e}.grid,.border{stroke:#30363d}.area{fill:#58a6ff;fill-opacity:.16}.line{stroke:#58a6ff}}
</style>
<rect class="bg" width="820" height="270" rx="8"/><rect class="border" x=".5" y=".5" width="819" height="269" rx="8"/>
<text class="title" x="24" y="34">GitHub Activity</text>
<text class="sub" x="796" y="33" text-anchor="end">4719 contributions · last 90 days</text>
<line x1="58" y1="222" x2="788" y2="222" class="grid"/><text x="46" y="226" text-anchor="end" class="small">0</text><line x1="58" y1="184.5" x2="788" y2="184.5" class="grid"/><text x="46" y="188.5" text-anchor="end" class="small">203</text><line x1="58" y1="147" x2="788" y2="147" class="grid"/><text x="46" y="151" text-anchor="end" class="small">405</text><line x1="58" y1="109.5" x2="788" y2="109.5" class="grid"/><text x="46" y="113.5" text-anchor="end" class="small">608</text><line x1="58" y1="72" x2="788" y2="72" class="grid"/><text x="46" y="76" text-anchor="end" class="small">810</text>
<polygon class="area" points="58,222 58.0,202.2 118.8,193.9 179.7,215.5 240.5,207.4 301.3,209.0 362.2,187.4 423.0,168.7 483.8,109.0 544.7,127.7 605.5,91.8 666.3,110.5 727.2,73.5 788.0,115.5 788,222"/><polyline class="line" points="58.0,202.2 118.8,193.9 179.7,215.5 240.5,207.4 301.3,209.0 362.2,187.4 423.0,168.7 483.8,109.0 544.7,127.7 605.5,91.8 666.3,110.5 727.2,73.5 788.0,115.5"/>
<circle cx="58.0" cy="202.2" r="3" fill="#fff" stroke="#0969da" stroke-width="2"><title>2026-07-07: 107 GitHub contribution events</title></circle><circle cx="118.8" cy="193.9" r="3" fill="#fff" stroke="#0969da" stroke-width="2"><title>2026-07-14: 152 GitHub contribution events</title></circle><circle cx="179.7" cy="215.5" r="3" fill="#fff" stroke="#0969da" stroke-width="2"><title>2026-07-21: 35 GitHub contribution events</title></circle><circle cx="240.5" cy="207.4" r="3" fill="#fff" stroke="#0969da" stroke-width="2"><title>2026-07-28: 79 GitHub contribution events</title></circle><circle cx="301.3" cy="209.0" r="3" fill="#fff" stroke="#0969da" stroke-width="2"><title>2026-08-04: 70 GitHub contribution events</title></circle><circle cx="362.2" cy="187.4" r="3" fill="#fff" stroke="#0969da" stroke-width="2"><title>2026-08-11: 187 GitHub contribution events</title></circle><circle cx="423.0" cy="168.7" r="3" fill="#fff" stroke="#0969da" stroke-width="2"><title>2026-08-18: 288 GitHub contribution events</title></circle><circle cx="483.8" cy="109.0" r="3" fill="#fff" stroke="#0969da" stroke-width="2"><title>2026-08-25: 610 GitHub contribution events</title></circle><circle cx="544.7" cy="127.7" r="3" fill="#fff" stroke="#0969da" stroke-width="2"><title>2026-09-01: 509 GitHub contribution events</title></circle><circle cx="605.5" cy="91.8" r="3" fill="#fff" stroke="#0969da" stroke-width="2"><title>2026-09-08: 703 GitHub contribution events</title></circle><circle cx="666.3" cy="110.5" r="3" fill="#fff" stroke="#0969da" stroke-width="2"><title>2026-09-15: 602 GitHub contribution events</title></circle><circle cx="727.2" cy="73.5" r="3" fill="#fff" stroke="#0969da" stroke-width="2"><title>2026-09-22: 802 GitHub contribution events</title></circle><circle cx="788.0" cy="115.5" r="3" fill="#fff" stroke="#0969da" stroke-width="2"><title>2026-09-29: 575 GitHub contribution events</title></circle><text x="58" y="252" text-anchor="middle" class="small">07/07</text><text x="240.5" y="252" text-anchor="middle" class="small">28/07</text><text x="423" y="252" text-anchor="middle" class="small">18/08</text><text x="605.5" y="252" text-anchor="middle" class="small">08/09</text><text x="788" y="252" text-anchor="middle" class="small">29/09</text>
</svg>