<svg xmlns="http://www.w3.org/2000/svg" width="820" height="270" viewBox="0 0 820 270" role="img" aria-label="GitHub contribution activity for wbizmo over the last 90 days">
<style>
.bg{fill:#fff}.title{font:600 19px -apple-system,BlinkMacSystemFont,Segoe UI,Helvetica,Arial,sans-serif;fill:#0969da}.sub{font:400 12px -apple-system,BlinkMacSystemFont,Segoe UI,Helvetica,Arial,sans-serif;fill:#57606a}.small{font:400 11px -apple-system,BlinkMacSystemFont,Segoe UI,Helvetica,Arial,sans-serif;fill:#57606a}.grid{stroke:#d8dee4;stroke-width:1}.area{fill:#0969da;fill-opacity:.16}.line{fill:none;stroke:#0969da;stroke-width:2.75;stroke-linejoin:round;stroke-linecap:round}.border{fill:none;stroke:#d0d7de}@media(prefers-color-scheme:dark){.bg{fill:#0d1117}.title{fill:#58a6ff}.sub,.small{fill:#8b949e}.grid,.border{stroke:#30363d}.area{fill:#58a6ff;fill-opacity:.16}.line{stroke:#58a6ff}}
</style>
<rect class="bg" width="820" height="270" rx="8"/><rect class="border" x=".5" y=".5" width="819" height="269" rx="8"/>
<text x="28" y="34" class="title">Contribution Activity</text>
<text x="792" y="34" text-anchor="end" class="sub">last 90 days · 2,105 GitHub contribution events</text>
<line x1="58" y1="222" x2="788" y2="222" class="grid"/><text x="46" y="226" text-anchor="end" class="small">0</text><line x1="58" y1="184.5" x2="788" y2="184.5" class="grid"/><text x="46" y="188.5" text-anchor="end" class="small">140</text><line x1="58" y1="147" x2="788" y2="147" class="grid"/><text x="46" y="151" text-anchor="end" class="small">280</text><line x1="58" y1="109.5" x2="788" y2="109.5" class="grid"/><text x="46" y="113.5" text-anchor="end" class="small">420</text><line x1="58" y1="72" x2="788" y2="72" class="grid"/><text x="46" y="76" text-anchor="end" class="small">560</text>
<polygon points="58,222 58.0,190.9 118.8,177.5 179.7,216.6 240.5,207.3 301.3,200.8 362.2,171.1 423.0,211.6 483.8,199.5 544.7,209.1 605.5,190.4 666.3,133.6 727.2,72.5 788.0,141.1 788,222" class="area"/>
<polyline points="58.0,190.9 118.8,177.5 179.7,216.6 240.5,207.3 301.3,200.8 362.2,171.1 423.0,211.6 483.8,199.5 544.7,209.1 605.5,190.4 666.3,133.6 727.2,72.5 788.0,141.1" class="line"/>
<circle cx="58.0" cy="190.9" r="3" fill="#fff" stroke="#0969da" stroke-width="2"><title>2026-06-07: 116 GitHub contribution events</title></circle><circle cx="118.8" cy="177.5" r="3" fill="#fff" stroke="#0969da" stroke-width="2"><title>2026-06-14: 166 GitHub contribution events</title></circle><circle cx="179.7" cy="216.6" r="3" fill="#fff" stroke="#0969da" stroke-width="2"><title>2026-06-21: 20 GitHub contribution events</title></circle><circle cx="240.5" cy="207.3" r="3" fill="#fff" stroke="#0969da" stroke-width="2"><title>2026-06-28: 55 GitHub contribution events</title></circle><circle cx="301.3" cy="200.8" r="3" fill="#fff" stroke="#0969da" stroke-width="2"><title>2026-07-05: 79 GitHub contribution events</title></circle><circle cx="362.2" cy="171.1" r="3" fill="#fff" stroke="#0969da" stroke-width="2"><title>2026-07-12: 190 GitHub contribution events</title></circle><circle cx="423.0" cy="211.6" r="3" fill="#fff" stroke="#0969da" stroke-width="2"><title>2026-07-19: 39 GitHub contribution events</title></circle><circle cx="483.8" cy="199.5" r="3" fill="#fff" stroke="#0969da" stroke-width="2"><title>2026-07-26: 84 GitHub contribution events</title></circle><circle cx="544.7" cy="209.1" r="3" fill="#fff" stroke="#0969da" stroke-width="2"><title>2026-08-02: 48 GitHub contribution events</title></circle><circle cx="605.5" cy="190.4" r="3" fill="#fff" stroke="#0969da" stroke-width="2"><title>2026-08-09: 118 GitHub contribution events</title></circle><circle cx="666.3" cy="133.6" r="3" fill="#fff" stroke="#0969da" stroke-width="2"><title>2026-08-16: 330 GitHub contribution events</title></circle><circle cx="727.2" cy="72.5" r="3" fill="#fff" stroke="#0969da" stroke-width="2"><title>2026-08-23: 558 GitHub contribution events</title></circle><circle cx="788.0" cy="141.1" r="3" fill="#fff" stroke="#0969da" stroke-width="2"><title>2026-08-30: 302 GitHub contribution events</title></circle><text x="58" y="252" text-anchor="middle" class="small">07/06</text><text x="240.5" y="252" text-anchor="middle" class="small">28/06</text><text x="423" y="252" text-anchor="middle" class="small">19/07</text><text x="605.5" y="252" text-anchor="middle" class="small">09/08</text><text x="788" y="252" text-anchor="middle" class="small">30/08</text>
</svg>