<svg xmlns="http://www.w3.org/2000/svg" width="430" height="180" viewBox="0 0 430 180" role="img" aria-label="Private-aware commit time distribution for wbizmo">

<style>
  .bg{fill:#fff}.border{fill:none;stroke:#d0d7de;stroke-width:1}
  .title{font:600 19px -apple-system,BlinkMacSystemFont,Segoe UI,Helvetica,Arial,sans-serif;fill:#0969da}
  .label{font:400 14px -apple-system,BlinkMacSystemFont,Segoe UI,Helvetica,Arial,sans-serif;fill:#57606a}
  .value{font:600 14px -apple-system,BlinkMacSystemFont,Segoe UI,Helvetica,Arial,sans-serif;fill:#0969da}
  .small{font:400 11px -apple-system,BlinkMacSystemFont,Segoe UI,Helvetica,Arial,sans-serif;fill:#57606a}
  .sub{font:400 12px -apple-system,BlinkMacSystemFont,Segoe UI,Helvetica,Arial,sans-serif;fill:#57606a}
  .grid{stroke:#d8dee4;stroke-width:1}.track{fill:#eaeef2}
  @media(prefers-color-scheme:dark){
    .bg{fill:#0d1117}.border,.grid{stroke:#30363d}.track{fill:#21262d}
    .title,.value{fill:#58a6ff}.label,.small,.sub{fill:#8b949e}
  }
</style>
<rect class="bg" width="430" height="180" rx="8"/><rect class="border" x=".5" y=".5" width="429" height="179" rx="8"/>
<text class="title" x="18" y="30">Commits (UTC +1.00)</text><text class="sub" x="410" y="29" text-anchor="end">all accessible default branches</text>
<line class="grid" x1="44" y1="150" x2="406" y2="150"/>
<line class="grid" x1="44" y1="48" x2="406" y2="48"/>
<text class="small" x="36" y="52" text-anchor="end">357</text>
<text class="small" x="36" y="154" text-anchor="end">0</text>
<rect x="45.0" y="80.0" width="13.1" height="70.0" rx="1" fill="#0969da"><title>0:00 — 245 commits</title></rect><rect x="60.1" y="91.7" width="13.1" height="58.3" rx="1" fill="#0969da"><title>1:00 — 204 commits</title></rect><rect x="75.2" y="109.7" width="13.1" height="40.3" rx="1" fill="#0969da"><title>2:00 — 141 commits</title></rect><rect x="90.3" y="104.6" width="13.1" height="45.4" rx="1" fill="#0969da"><title>3:00 — 159 commits</title></rect><rect x="105.3" y="117.7" width="13.1" height="32.3" rx="1" fill="#0969da"><title>4:00 — 113 commits</title></rect><rect x="120.4" y="113.4" width="13.1" height="36.6" rx="1" fill="#0969da"><title>5:00 — 128 commits</title></rect><rect x="135.5" y="80.9" width="13.1" height="69.1" rx="1" fill="#0969da"><title>6:00 — 242 commits</title></rect><rect x="150.6" y="86.6" width="13.1" height="63.4" rx="1" fill="#0969da"><title>7:00 — 222 commits</title></rect><rect x="165.7" y="93.1" width="13.1" height="56.9" rx="1" fill="#0969da"><title>8:00 — 199 commits</title></rect><rect x="180.8" y="98.0" width="13.1" height="52.0" rx="1" fill="#0969da"><title>9:00 — 182 commits</title></rect><rect x="195.8" y="125.1" width="13.1" height="24.9" rx="1" fill="#0969da"><title>10:00 — 87 commits</title></rect><rect x="210.9" y="120.3" width="13.1" height="29.7" rx="1" fill="#0969da"><title>11:00 — 104 commits</title></rect><rect x="226.0" y="114.3" width="13.1" height="35.7" rx="1" fill="#0969da"><title>12:00 — 125 commits</title></rect><rect x="241.1" y="126.3" width="13.1" height="23.7" rx="1" fill="#0969da"><title>13:00 — 83 commits</title></rect><rect x="256.2" y="114.3" width="13.1" height="35.7" rx="1" fill="#0969da"><title>14:00 — 125 commits</title></rect><rect x="271.3" y="116.9" width="13.1" height="33.1" rx="1" fill="#0969da"><title>15:00 — 116 commits</title></rect><rect x="286.3" y="123.1" width="13.1" height="26.9" rx="1" fill="#0969da"><title>16:00 — 94 commits</title></rect><rect x="301.4" y="119.7" width="13.1" height="30.3" rx="1" fill="#0969da"><title>17:00 — 106 commits</title></rect><rect x="316.5" y="116.0" width="13.1" height="34.0" rx="1" fill="#0969da"><title>18:00 — 119 commits</title></rect><rect x="331.6" y="114.9" width="13.1" height="35.1" rx="1" fill="#0969da"><title>19:00 — 123 commits</title></rect><rect x="346.7" y="106.9" width="13.1" height="43.1" rx="1" fill="#0969da"><title>20:00 — 151 commits</title></rect><rect x="361.8" y="48.0" width="13.1" height="102.0" rx="1" fill="#0969da"><title>21:00 — 357 commits</title></rect><rect x="376.8" y="83.7" width="13.1" height="66.3" rx="1" fill="#0969da"><title>22:00 — 232 commits</title></rect><rect x="391.9" y="84.6" width="13.1" height="65.4" rx="1" fill="#0969da"><title>23:00 — 229 commits</title></rect><text class="small" x="51.5" y="169" text-anchor="middle">0</text><text class="small" x="142.0" y="169" text-anchor="middle">6</text><text class="small" x="232.5" y="169" text-anchor="middle">12</text><text class="small" x="323.0" y="169" text-anchor="middle">18</text><text class="small" x="398.5" y="169" text-anchor="middle">23</text>
<text class="small" x="406" y="169" text-anchor="end">per day hour</text>
</svg>